<?xml version="1.0"?>
<svg xmlns="http://www.w3.org/2000/svg" xmlns:xlink="http://www.w3.org/1999/xlink" xmlns:svgjs="http://svgjs.com/svgjs" version="1.1" width="512" height="512" x="0" y="0" viewBox="0 0 512 512" style="enable-background:new 0 0 512 512" xml:space="preserve" class=""><g>
<g xmlns="http://www.w3.org/2000/svg">
	<g>
		<path d="M129.112,330.318c-11.697-11.695-30.728-11.694-42.424,0.001c-11.695,11.694-11.697,30.726-0.001,42.421    c11.698,11.695,30.729,11.695,42.425,0S140.809,342.014,129.112,330.318z M118.505,362.134c-5.848,5.848-15.364,5.848-21.212,0    c-5.846-5.848-5.848-15.361,0.001-21.21c5.847-5.847,15.363-5.847,21.211-0.001C124.353,346.771,124.353,356.287,118.505,362.134z    " fill="#ffffff" data-original="#000000" style="" class=""/>
	</g>
</g>
<g xmlns="http://www.w3.org/2000/svg">
	<g>
		<path d="M172.69,293.32l-19.2-19.195c-2.928-2.928-7.676-2.928-10.604,0c-2.929,2.929-2.929,7.677-0.001,10.604l19.198,19.196    c4.035,4.035,3.987,10.648-0.106,14.741c-4.093,4.093-10.707,4.142-14.742,0.106l-19.197-19.197    c-2.928-2.928-7.678-2.926-10.606,0.002c-2.928,2.928-2.928,7.676,0,10.604l19.197,19.197c9.885,9.883,26.012,9.836,35.955-0.106    C182.526,319.331,182.574,303.205,172.69,293.32z" fill="#ffffff" data-original="#000000" style="" class=""/>
	</g>
</g>
<g xmlns="http://www.w3.org/2000/svg">
	<g>
		<path d="M211.011,280.239l-26.513-26.513l6.717-6.717c2.929-2.929,2.93-7.676-0.001-10.606c-2.928-2.928-7.676-2.928-10.605,0.001    l-24.04,24.038c-2.929,2.929-2.929,7.677-0.001,10.604c2.931,2.931,7.678,2.93,10.607,0.001l6.717-6.717l26.514,26.513    c2.93,2.93,7.677,2.929,10.606,0C213.94,287.915,213.941,283.168,211.011,280.239z" fill="#ffffff" data-original="#000000" style="" class=""/>
	</g>
</g>
<g xmlns="http://www.w3.org/2000/svg">
	<g>
		<path d="M253.017,238.237c-2.931-2.927-7.678-2.928-10.607,0.001l-10.96,10.959l-26.515-26.514c-2.928-2.928-7.676-2.928-10.604,0    c-2.929,2.929-2.929,7.677-0.001,10.604l31.819,31.816c2.93,2.93,7.677,2.929,10.605,0.001l16.263-16.262    C255.946,245.913,255.947,241.166,253.017,238.237z" fill="#ffffff" data-original="#000000" style="" class=""/>
	</g>
</g>
<g xmlns="http://www.w3.org/2000/svg">
	<g>
		<path d="M283.606,207.651c-2.928-2.931-7.677-2.931-10.605-0.002l-10.96,10.958l-5.303-5.301l6.717-6.717    c2.93-2.929,2.928-7.676-0.002-10.605c-2.928-2.93-7.675-2.929-10.604,0l-6.717,6.717l-5.303-5.303l10.96-10.959    c2.93-2.93,2.93-7.676-0.002-10.605c-2.928-2.928-7.674-2.93-10.604,0l-16.263,16.262c-2.928,2.928-2.928,7.676,0,10.604    l31.819,31.816c2.929,2.93,7.678,2.929,10.606,0l16.263-16.261C286.536,215.326,286.536,210.58,283.606,207.651z" fill="#ffffff" data-original="#000000" style="" class=""/>
	</g>
</g>
<g xmlns="http://www.w3.org/2000/svg">
	<g>
		<path d="M309.241,182.018l-26.516-26.512l6.719-6.718c2.928-2.929,2.928-7.675-0.002-10.606    c-2.928-2.928-7.676-2.928-10.604,0.001l-24.04,24.038c-2.93,2.93-2.93,7.678-0.002,10.605c2.931,2.93,7.678,2.93,10.608,0    l6.717-6.717l26.514,26.514c2.93,2.93,7.678,2.928,10.606,0C312.169,189.695,312.171,184.947,309.241,182.018z" fill="#ffffff" data-original="#000000" style="" class=""/>
	</g>
</g>
<g xmlns="http://www.w3.org/2000/svg">
	<g>
		<path d="M500.239,202.46c-7.541-18.33-18.362-34.91-32.173-49.26c-6.79-7.07-14.29-13.53-22.271-19.221    c-8.041-5.72-16.661-10.71-25.612-14.819c-1.719-0.789-3.452-1.534-5.192-2.258c-0.002-1.597-0.004-3.11-0.007-4.52    c-0.038-16.518-6.836-32.4-19.15-44.732c-12.325-12.305-28.209-19.103-44.728-19.141h-0.001c-10.47-0.022-26.314,0-44.66,0.025    c-10.092,0.015-20.752,0.03-31.286,0.039c-18.548,0.015-35.987,7.246-49.105,20.362L21.677,273.299    c-28.903,28.901-28.903,75.928,0,104.829l63.666,63.662c14.001,14,32.617,21.71,52.418,21.71c19.801,0,38.417-7.71,52.418-21.71    l204.376-204.362c13.117-13.117,20.349-30.556,20.364-49.103c0.009-10.533,0.023-21.192,0.039-31.284    c0.012-8.601,0.024-16.641,0.03-23.846c48.678,22.678,82.018,71.965,82.011,129.075c-0.01,38.021-14.812,73.78-41.703,100.67    c-26.902,26.891-62.655,41.7-100.677,41.7h-0.05c-25.872,0-52.894-7.9-76.066-22.24c-1.19-0.739-2.55-1.12-3.94-1.12    c-2.62,0-5.011,1.33-6.391,3.551c-2.17,3.52-1.08,8.149,2.441,10.33c12.501,7.729,25.891,13.75,39.812,17.909    c14.581,4.36,29.452,6.57,44.193,6.57c21.242,0,41.852-4.16,61.254-12.37c9.331-3.939,18.322-8.819,26.742-14.51    c8.331-5.63,16.161-12.09,23.292-19.21c7.121-7.12,13.581-14.96,19.211-23.29c5.69-8.42,10.57-17.41,14.511-26.73    C507.84,304.12,512,283.519,512,262.269C512,241.569,508.04,221.439,500.239,202.46z M399.957,157.019    c-0.015,10.095-0.03,20.757-0.039,31.294c-0.012,14.545-5.683,28.221-15.971,38.507L179.572,431.182    c-23.054,23.053-60.567,23.053-83.621,0L32.285,367.52c-11.168-11.167-17.319-26.015-17.319-41.808    c0-15.792,6.15-30.64,17.318-41.807L236.661,79.544c10.288-10.287,23.964-15.959,38.51-15.97    c10.538-0.009,21.201-0.024,31.296-0.039c12.941-0.019,24.635-0.035,34.069-0.035c3.929,0,7.465,0.003,10.536,0.01    c12.529,0.028,24.662,5.269,34.156,14.748c9.262,9.275,14.462,21.06,14.731,33.271c-7.666-2.304-15.495-4.022-23.458-5.127    c-2.718-11.514-13.074-20.112-25.406-20.112c-14.396,0-26.108,11.712-26.108,26.107c0,14.395,11.712,26.106,26.108,26.106    c11.223,0,20.813-7.118,24.497-17.075c8.406,1.229,16.56,3.187,24.402,5.801C399.988,135.831,399.973,145.965,399.957,157.019z     M357.959,120.029h1.182c-2.026,2.134-4.88,3.474-8.048,3.474c-6.124,0-11.107-4.982-11.107-11.106    c0-6.125,4.983-11.107,11.107-11.107c3.297,0,6.255,1.452,8.291,3.74h-1.424c-4.13,0-7.5,3.36-7.5,7.5    C350.459,116.66,353.829,120.029,357.959,120.029z" fill="#ffffff" data-original="#000000" style="" class=""/>
	</g>
</g>
<g xmlns="http://www.w3.org/2000/svg">
</g>
<g xmlns="http://www.w3.org/2000/svg">
</g>
<g xmlns="http://www.w3.org/2000/svg">
</g>
<g xmlns="http://www.w3.org/2000/svg">
</g>
<g xmlns="http://www.w3.org/2000/svg">
</g>
<g xmlns="http://www.w3.org/2000/svg">
</g>
<g xmlns="http://www.w3.org/2000/svg">
</g>
<g xmlns="http://www.w3.org/2000/svg">
</g>
<g xmlns="http://www.w3.org/2000/svg">
</g>
<g xmlns="http://www.w3.org/2000/svg">
</g>
<g xmlns="http://www.w3.org/2000/svg">
</g>
<g xmlns="http://www.w3.org/2000/svg">
</g>
<g xmlns="http://www.w3.org/2000/svg">
</g>
<g xmlns="http://www.w3.org/2000/svg">
</g>
<g xmlns="http://www.w3.org/2000/svg">
</g>
</g></svg>
