<?xml version="1.0"?>
<svg xmlns="http://www.w3.org/2000/svg" xmlns:xlink="http://www.w3.org/1999/xlink" xmlns:svgjs="http://svgjs.com/svgjs" version="1.1" width="512" height="512" x="0" y="0" viewBox="0 0 509.956 509.956" style="enable-background:new 0 0 512 512" xml:space="preserve" class=""><g><g xmlns="http://www.w3.org/2000/svg"><path d="m66.934 83.339c-27.598 30.236-48.356 66.85-58.929 107.908l29.063 7.471c20.42-79.292 82.354-141.24 161.66-161.646l-7.5-29.063c-41.052 10.571-77.659 31.33-107.889 58.926 9.789-17.177 8.097-39.128-6.544-53.769-17.52-17.549-46.113-17.549-63.633 0-17.549 17.549-17.549 46.084 0 63.633 12.91 12.931 33.094 18.314 53.772 6.54z" fill="#ffffff" data-original="#000000" style="" class=""/><path d="m443.031 426.614c27.594-30.234 48.349-66.844 58.92-107.897l-29.063-7.471c-20.42 79.292-82.354 141.24-161.66 161.646l7.5 29.063c41.05-10.571 77.657-31.328 107.888-58.923-9.787 17.173-8.093 39.128 6.546 53.767 17.498 17.527 46.113 17.549 63.633 0 17.549-17.549 17.549-46.084 0-63.633-14.612-14.638-36.594-16.331-53.764-6.552z" fill="#ffffff" data-original="#000000" style="" class=""/><path d="m37.068 311.247-29.063 7.471c10.571 41.052 31.326 77.662 58.92 107.897-17.17-9.78-39.152-8.086-53.763 6.552-17.549 17.549-17.549 46.084 0 63.633 17.498 17.527 46.113 17.549 63.633 0 14.639-14.639 16.333-36.594 6.546-53.767 30.231 27.596 66.837 48.353 107.888 58.923l7.5-29.063c-79.308-20.406-141.241-82.354-161.661-161.646z" fill="#ffffff" data-original="#000000" style="" class=""/><path d="m472.888 198.717 29.063-7.471c-10.573-41.058-31.331-77.672-58.929-107.908 20.385 11.607 40.6 6.654 53.773-6.541 17.549-17.549 17.549-46.084 0-63.633-17.52-17.549-46.113-17.549-63.633 0-14.641 14.641-16.333 36.592-6.544 53.769-30.231-27.594-66.838-48.353-107.89-58.924l-7.5 29.063c79.307 20.405 141.24 82.353 161.66 161.645z" fill="#ffffff" data-original="#000000" style="" class=""/><path d="m211.609 211.614c-1.02 13.922-1.631 28.389-1.631 43.369s.612 29.447 1.631 43.369c13.922 1.02 28.389 1.631 43.369 1.631 14.978 0 29.447-.612 43.369-1.631 1.02-13.922 1.631-28.389 1.631-43.369s-.612-29.447-1.631-43.369c-13.922-1.02-28.391-1.631-43.369-1.631-14.98-.001-29.447.611-43.369 1.631z" fill="#ffffff" data-original="#000000" style="" class=""/><path d="m59.978 254.982c.824 11.391 50.147 31.406 121.476 40.389-.952-13.982-1.476-27.634-1.476-40.389s.524-26.407 1.476-40.389c-71.329 8.983-120.652 28.998-121.476 40.389z" fill="#ffffff" data-original="#000000" style="" class=""/><path d="m254.978 179.982c12.755 0 26.407.524 40.389 1.476-8.983-71.325-28.998-120.641-40.389-121.476-11.391.835-31.406 50.151-40.389 121.476 13.982-.952 27.634-1.476 40.389-1.476z" fill="#ffffff" data-original="#000000" style="" class=""/><path d="m254.978 329.982c-12.755 0-26.407-.524-40.389-1.476 8.983 71.325 28.998 120.641 40.389 121.476 11.391-.835 31.406-50.151 40.389-121.476-13.982.952-27.634 1.476-40.389 1.476z" fill="#ffffff" data-original="#000000" style="" class=""/><path d="m64.195 295.19c15.857 75.306 75.273 134.724 150.58 150.577-15.282-29.709-25.345-74.919-30.551-120.027-45.108-5.204-90.32-15.268-120.029-30.55z" fill="#ffffff" data-original="#000000" style="" class=""/><path d="m449.978 254.982c-.824-11.391-50.147-31.406-121.476-40.389.952 13.982 1.476 27.634 1.476 40.389s-.524 26.407-1.476 40.389c71.329-8.983 120.652-28.998 121.476-40.389z" fill="#ffffff" data-original="#000000" style="" class=""/><path d="m445.761 295.19c-29.709 15.282-74.921 25.345-120.027 30.549-5.206 45.108-15.271 90.319-30.553 120.027 75.307-15.852 134.723-75.27 150.58-150.576z" fill="#ffffff" data-original="#000000" style="" class=""/><path d="m64.195 214.774c29.709-15.282 74.921-25.345 120.029-30.549 5.206-45.108 15.269-90.319 30.551-120.027-75.307 15.852-134.723 75.27-150.58 150.576z" fill="#ffffff" data-original="#000000" style="" class=""/><path d="m445.761 214.774c-15.857-75.306-75.273-134.724-150.58-150.577 15.282 29.709 25.347 74.919 30.553 120.027 45.106 5.204 90.318 15.268 120.027 30.55z" fill="#ffffff" data-original="#000000" style="" class=""/></g></g></svg>
